<?xml version="1.0" encoding="utf-8"?>
<svg viewBox="206.79100036621094 237.46099853515625 84.48100280761719 18.371000289916992" width="84.48100280761719" height="18.371000289916992" xmlns="http://www.w3.org/2000/svg" xmlns:bx="https://boxy-svg.com">
  <path d="M 207.772 246.912 L 208.322 245.442 L 209.692 245.522 L 209.692 244.082 L 209.692 244.082 C 209.692 242.722 210.009 241.585 210.642 240.672 L 210.642 240.672 L 210.642 240.672 C 211.275 239.759 212.255 239.302 213.582 239.302 L 213.582 239.302 L 213.582 239.302 C 214.909 239.302 216.245 239.605 217.592 240.212 L 217.592 240.212 L 217.592 240.212 C 217.172 241.219 216.825 241.922 216.552 242.322 L 216.552 242.322 L 216.552 242.322 C 215.419 241.302 214.379 240.792 213.432 240.792 L 213.432 240.792 L 213.432 240.792 C 213.132 240.792 212.805 240.862 212.452 241.002 L 212.452 241.002 L 212.452 241.002 C 212.119 241.435 211.952 242.485 211.952 244.152 L 211.952 244.152 L 211.952 245.542 L 211.952 245.542 C 213.119 245.529 214.279 245.465 215.432 245.352 L 215.432 245.352 L 214.782 247.102 L 214.782 247.102 C 213.835 246.955 212.892 246.869 211.952 246.842 L 211.952 246.842 L 211.952 252.432 L 211.952 252.432 C 211.952 253.185 212.022 254.015 212.162 254.922 L 212.162 254.922 L 212.162 254.922 C 212.309 255.835 212.469 256.492 212.642 256.892 L 212.642 256.892 L 212.642 257.062 L 209.282 257.062 L 209.282 256.892 L 209.282 256.892 C 209.555 256.092 209.692 254.789 209.692 252.982 L 209.692 252.982 L 209.692 246.842 L 207.772 246.912 ZM 221.88 257.352 L 221.88 257.352 L 221.88 257.352 C 220.2 257.352 218.873 256.819 217.9 255.752 L 217.9 255.752 L 217.9 255.752 C 216.926 254.692 216.44 253.302 216.44 251.582 L 216.44 251.582 L 216.44 251.582 C 216.44 249.862 217.006 248.375 218.14 247.122 L 218.14 247.122 L 218.14 247.122 C 219.273 245.875 220.7 245.252 222.42 245.252 L 222.42 245.252 L 222.42 245.252 C 224.14 245.252 225.47 245.772 226.41 246.812 L 226.41 246.812 L 226.41 246.812 C 227.343 247.852 227.81 249.245 227.81 250.992 L 227.81 250.992 L 227.81 250.992 C 227.81 252.732 227.243 254.229 226.11 255.482 L 226.11 255.482 L 226.11 255.482 C 224.97 256.729 223.56 257.352 221.88 257.352 Z M 225.27 251.592 L 225.27 251.592 L 225.27 251.592 C 225.27 250.005 225.02 248.782 224.52 247.922 L 224.52 247.922 L 224.52 247.922 C 224.026 247.055 223.146 246.622 221.88 246.622 L 221.88 246.622 L 221.88 246.622 C 221.066 246.622 220.426 246.799 219.96 247.152 L 219.96 247.152 L 219.96 247.152 C 219.673 247.519 219.44 248.079 219.26 248.832 L 219.26 248.832 L 219.26 248.832 C 219.073 249.585 218.98 250.305 218.98 250.992 L 218.98 250.992 L 218.98 250.992 C 218.98 254.332 220.163 256.002 222.53 256.002 L 222.53 256.002 L 222.53 256.002 C 223.27 256.002 223.87 255.835 224.33 255.502 L 224.33 255.502 L 224.33 255.502 C 224.636 255.135 224.87 254.569 225.03 253.802 L 225.03 253.802 L 225.03 253.802 C 225.19 253.029 225.27 252.292 225.27 251.592 ZM 235.367 257.352 L 235.367 257.352 L 235.367 257.352 C 233.687 257.352 232.36 256.819 231.387 255.752 L 231.387 255.752 L 231.387 255.752 C 230.414 254.692 229.927 253.302 229.927 251.582 L 229.927 251.582 L 229.927 251.582 C 229.927 249.862 230.494 248.375 231.627 247.122 L 231.627 247.122 L 231.627 247.122 C 232.76 245.875 234.187 245.252 235.907 245.252 L 235.907 245.252 L 235.907 245.252 C 237.627 245.252 238.957 245.772 239.897 246.812 L 239.897 246.812 L 239.897 246.812 C 240.83 247.852 241.297 249.245 241.297 250.992 L 241.297 250.992 L 241.297 250.992 C 241.297 252.732 240.73 254.229 239.597 255.482 L 239.597 255.482 L 239.597 255.482 C 238.457 256.729 237.047 257.352 235.367 257.352 Z M 238.757 251.592 L 238.757 251.592 L 238.757 251.592 C 238.757 250.005 238.507 248.782 238.007 247.922 L 238.007 247.922 L 238.007 247.922 C 237.514 247.055 236.634 246.622 235.367 246.622 L 235.367 246.622 L 235.367 246.622 C 234.554 246.622 233.914 246.799 233.447 247.152 L 233.447 247.152 L 233.447 247.152 C 233.16 247.519 232.927 248.079 232.747 248.832 L 232.747 248.832 L 232.747 248.832 C 232.56 249.585 232.467 250.305 232.467 250.992 L 232.467 250.992 L 232.467 250.992 C 232.467 254.332 233.65 256.002 236.017 256.002 L 236.017 256.002 L 236.017 256.002 C 236.757 256.002 237.357 255.835 237.817 255.502 L 237.817 255.502 L 237.817 255.502 C 238.124 255.135 238.357 254.569 238.517 253.802 L 238.517 253.802 L 238.517 253.802 C 238.677 253.029 238.757 252.292 238.757 251.592 ZM 248.474 257.322 L 248.474 257.322 L 248.474 257.322 C 246.808 257.322 245.568 256.759 244.754 255.632 L 244.754 255.632 L 244.754 255.632 C 243.941 254.505 243.534 253.085 243.534 251.372 L 243.534 251.372 L 243.534 251.372 C 243.534 249.659 244.058 248.212 245.104 247.032 L 245.104 247.032 L 245.104 247.032 C 246.151 245.845 247.474 245.252 249.074 245.252 L 249.074 245.252 L 249.074 245.252 C 249.968 245.252 250.854 245.405 251.734 245.712 L 251.734 245.712 L 251.734 242.972 L 251.734 242.972 C 251.734 241.692 251.368 240.702 250.634 240.002 L 250.634 240.002 L 250.634 239.712 L 253.924 239.132 L 254.064 239.372 L 254.064 239.372 C 254.018 239.839 253.994 240.502 253.994 241.362 L 253.994 241.362 L 253.994 253.242 L 253.994 253.242 C 253.994 253.962 254.108 254.649 254.334 255.302 L 254.334 255.302 L 254.334 255.302 C 254.554 255.949 254.841 256.392 255.194 256.632 L 255.194 256.632 L 255.244 256.872 L 252.624 257.492 L 252.624 257.492 C 252.464 257.092 252.264 256.435 252.024 255.522 L 252.024 255.522 L 252.024 255.522 C 250.791 256.722 249.608 257.322 248.474 257.322 Z M 247.344 254.832 L 247.344 254.832 L 247.344 254.832 C 247.811 255.312 248.444 255.552 249.244 255.552 L 249.244 255.552 L 249.244 255.552 C 250.044 255.552 250.874 255.169 251.734 254.402 L 251.734 254.402 L 251.734 247.632 L 251.734 247.632 C 250.908 247.025 249.868 246.722 248.614 246.722 L 248.614 246.722 L 248.614 246.722 C 247.894 246.722 247.344 246.865 246.964 247.152 L 246.964 247.152 L 246.964 247.152 C 246.371 248.092 246.074 249.395 246.074 251.062 L 246.074 251.062 L 246.074 251.062 C 246.074 252.729 246.498 253.985 247.344 254.832 ZM 262.468 257.322 L 262.468 257.322 L 262.468 257.322 C 260.788 257.322 259.475 256.802 258.528 255.762 L 258.528 255.762 L 258.528 255.762 C 257.588 254.722 257.118 253.352 257.118 251.652 L 257.118 251.652 L 257.118 251.652 C 257.118 249.945 257.645 248.452 258.698 247.172 L 258.698 247.172 L 258.698 247.172 C 259.751 245.892 261.065 245.252 262.638 245.252 L 262.638 245.252 L 262.638 245.252 C 265.498 245.252 266.928 247.022 266.928 250.562 L 266.928 250.562 L 266.038 251.422 L 259.658 251.422 L 259.658 251.422 C 259.658 252.769 259.945 253.775 260.518 254.442 L 260.518 254.442 L 260.518 254.442 C 261.098 255.115 261.875 255.452 262.848 255.452 L 262.848 255.452 L 262.848 255.452 C 263.235 255.452 263.778 255.335 264.478 255.102 L 264.478 255.102 L 264.478 255.102 C 265.185 254.875 265.811 254.602 266.358 254.282 L 266.358 254.282 L 266.958 255.192 L 266.958 255.192 C 266.651 255.492 265.991 255.922 264.978 256.482 L 264.978 256.482 L 264.978 256.482 C 263.958 257.042 263.121 257.322 262.468 257.322 Z M 262.198 246.452 L 262.198 246.452 L 262.198 246.452 C 261.531 246.452 261.011 246.605 260.638 246.912 L 260.638 246.912 L 260.638 246.912 C 260.338 247.325 260.098 247.852 259.918 248.492 L 259.918 248.492 L 259.918 248.492 C 259.745 249.132 259.658 249.692 259.658 250.172 L 259.658 250.172 L 264.578 249.982 L 264.578 249.982 C 264.578 247.629 263.785 246.452 262.198 246.452 Z" transform="matrix(1, 0, 0, 1.0000009536743164, -0.9811760187149048, -1.6709868907928467)" style="fill: rgb(236, 165, 65); white-space: pre;"/>
  <path d="M 279.948 253.666 L 279.948 255.006 L 267.668 255.006 L 267.668 253.666 L 279.948 253.666 Z" style="fill: rgb(152, 109, 40); white-space: pre;" transform="matrix(1, 0, 0, 1, 0, 0)"/>
  <path d="M 287.763 257.322 L 287.763 257.322 L 287.763 257.322 C 286.083 257.322 284.77 256.802 283.823 255.762 L 283.823 255.762 L 283.823 255.762 C 282.883 254.722 282.413 253.352 282.413 251.652 L 282.413 251.652 L 282.413 251.652 C 282.413 249.945 282.94 248.452 283.993 247.172 L 283.993 247.172 L 283.993 247.172 C 285.046 245.892 286.359 245.252 287.933 245.252 L 287.933 245.252 L 287.933 245.252 C 290.793 245.252 292.223 247.022 292.223 250.562 L 292.223 250.562 L 291.333 251.422 L 284.953 251.422 L 284.953 251.422 C 284.953 252.769 285.24 253.775 285.813 254.442 L 285.813 254.442 L 285.813 254.442 C 286.393 255.115 287.17 255.452 288.143 255.452 L 288.143 255.452 L 288.143 255.452 C 288.53 255.452 289.073 255.335 289.773 255.102 L 289.773 255.102 L 289.773 255.102 C 290.48 254.875 291.106 254.602 291.653 254.282 L 291.653 254.282 L 292.253 255.192 L 292.253 255.192 C 291.946 255.492 291.286 255.922 290.273 256.482 L 290.273 256.482 L 290.273 256.482 C 289.253 257.042 288.416 257.322 287.763 257.322 Z M 287.493 246.452 L 287.493 246.452 L 287.493 246.452 C 286.826 246.452 286.306 246.605 285.933 246.912 L 285.933 246.912 L 285.933 246.912 C 285.633 247.325 285.393 247.852 285.213 248.492 L 285.213 248.492 L 285.213 248.492 C 285.04 249.132 284.953 249.692 284.953 250.172 L 284.953 250.172 L 289.873 249.982 L 289.873 249.982 C 289.873 247.629 289.079 246.452 287.493 246.452 Z" transform="matrix(1, 0, 0, 1.0000009536743164, -0.9811760187149048, -1.6709868907928467)" style="fill: rgb(236, 165, 65); white-space: pre;"/>
  <path d="M 268.154 254.191 C 268.154 254.191 268.154 254.603 268.154 254.625 C 268.154 254.993 268.154 255.36 268.154 255.728" style="fill: rgb(152, 109, 40); stroke: rgb(152, 109, 40);" transform="matrix(1, 0, 0, 1, 0, 0)"/>
  <path d="M 279.449 254.295 C 279.449 254.295 279.449 254.707 279.449 254.729 C 279.449 255.097 279.449 255.464 279.449 255.832" style="fill: rgb(216, 216, 216); stroke: rgb(152, 109, 40);" transform="matrix(1, 0, 0, 1, 0, 0)" bx:origin="Infinity 0.608"/>
</svg>